<svg width="260" height="154" viewBox="0 0 260 154" fill="none"
    xmlns="http://www.w3.org/2000/svg">
    <rect width="260" height="153" transform="translate(0 0.416992)" fill="#F2F2F2"/>
    <path d="M187.63 70.0272L187.617 74.8578C187.602 80.2827 184.214 85.6993 177.447 89.8383C163.832 98.1654 141.673 98.1655 127.962 89.8341C121.061 85.6412 117.615 80.1368 117.63 74.6417L117.643 69.8111C117.628 75.3063 121.074 80.8104 127.975 85.0036C141.686 93.3349 163.845 93.3348 177.46 85.0077C184.227 80.8687 187.615 75.4521 187.63 70.0272Z" fill="#C8C8C8"/>
    <path d="M177.297 55.9537C191.011 64.3331 191.083 77.9196 177.459 86.2993C163.841 94.6744 141.678 94.6746 127.964 86.2951C114.25 77.9157 114.178 64.3291 127.796 55.9541C141.42 47.5743 163.583 47.5742 177.297 55.9537Z" fill="white"/>
    <path d="M135.849 62.4058L168.922 71.2677L164.984 85.9654L131.911 77.1034L135.849 62.4058Z" fill="url(#paint0_radial_3169_166244)"/>
    <path d="M175.724 70.6481C173.672 69.5564 172.646 70.6314 172.646 73.873V81.0953C172.646 86.0062 170.635 87.2661 166.611 84.8752V81.8422C167.756 82.5083 168.568 82.6027 169.048 82.1255C169.527 81.6483 169.767 80.5268 169.768 78.7612V71.8037C169.768 68.4171 170.747 66.9605 172.706 67.434V67.3377C171.711 66.2972 170.935 65.0464 170.428 63.6671C169.922 62.2877 169.697 60.811 169.768 59.3333V52.2796C169.768 49.1659 168.716 46.9347 166.611 45.586V42.5046C168.508 43.5986 170.078 45.2308 171.144 47.2173C172.21 49.2037 172.73 51.4655 172.646 53.7477V60.7778C172.646 64.0836 173.672 66.4428 175.724 67.8554V70.6481Z" fill="#0078D4"/>
    <path d="M134.332 65.5424C132.439 64.4631 130.87 62.8465 129.8 60.8749C128.73 58.9033 128.202 56.655 128.276 54.3834V47.1611C128.276 43.9188 127.251 41.5919 125.2 40.1803V37.3873C127.251 38.4788 128.276 37.3711 128.276 34.0643V27.0346C128.276 22.0592 130.294 20.7714 134.331 23.1713V26.2527C132.241 25.0409 131.195 25.9918 131.195 29.1052V36.1595C131.195 39.5297 130.209 40.9982 128.237 40.5649V40.6612C129.241 41.688 130.025 42.9308 130.535 44.3056C131.045 45.6804 131.27 47.1551 131.195 48.6299V55.5873C131.137 57.0383 131.375 58.4854 131.895 59.8299C132.436 60.9602 133.284 61.8933 134.332 62.509V65.5424Z" fill="#0078D4"/>
    <path fill-rule="evenodd" clip-rule="evenodd" d="M134.827 38.6746C134.827 36.4654 136.378 35.57 138.291 36.6746L162.54 50.6746C164.453 51.7791 166.004 54.4654 166.004 56.6746L166.004 67.6746C166.004 69.8837 164.453 70.7791 162.54 69.6746L138.291 55.6746C136.378 54.57 134.827 51.8837 134.827 49.6746L134.827 38.6746ZM138.291 43.6746C138.291 43.1223 138.679 42.8984 139.157 43.1746L161.674 56.1746C162.152 56.4507 162.54 57.1223 162.54 57.6746C162.54 58.2268 162.152 58.4507 161.674 58.1746L139.157 45.1746C138.679 44.8984 138.291 44.2268 138.291 43.6746ZM139.157 48.1746C138.679 47.8984 138.291 48.1223 138.291 48.6746C138.291 49.2268 138.679 49.8984 139.157 50.1746L154.746 59.1746C155.224 59.4507 155.612 59.2268 155.612 58.6746C155.612 58.1223 155.224 57.4507 154.746 57.1746L139.157 48.1746Z" fill="#0078D4"/>
    <rect x="78.378" y="111.175" width="47.7112" height="24.6428" transform="rotate(15 78.378 111.175)" fill="url(#paint1_radial_3169_166244)"/>
    <path d="M114.147 61.0097C116.497 62.3697 118.397 65.6597 118.387 68.3597L118.227 123.79C118.227 126.49 116.307 127.58 113.957 126.22L77.0673 104.92C74.7173 103.56 72.8173 100.27 72.8273 97.5697L72.9873 42.1397C72.9873 39.4297 74.9073 38.3397 77.2573 39.6997L114.147 60.9997V61.0097Z" fill="white"/>
    <path d="M97.7178 93.9797L84.2378 86.1997C82.6678 85.2897 81.3878 86.0197 81.3878 87.8197C81.3878 89.6197 82.6478 91.8197 84.2178 92.7297L97.6978 100.51C99.2578 101.41 100.538 100.68 100.538 98.8797C100.538 97.0797 99.2778 94.8897 97.7078 93.9897L97.7178 93.9797ZM88.4778 93.5397L84.2278 91.0897C83.4378 90.6397 82.8078 89.5397 82.8078 88.6397C82.8078 87.7397 83.4478 87.3797 84.2378 87.8297L88.4878 90.2897C89.2778 90.7397 89.9078 91.8297 89.8978 92.7397C89.8878 93.6497 89.2578 93.9997 88.4778 93.5497V93.5397ZM97.7078 98.8697L93.4478 96.4097C92.6578 95.9597 92.0278 94.8697 92.0378 93.9597C92.0478 93.0497 92.6778 92.6997 93.4578 93.1497L97.7178 95.6097C98.4978 96.0597 99.1378 97.1497 99.1278 98.0597C99.1278 98.9597 98.4878 99.3197 97.7078 98.8697Z" fill="#77D672"/>
    <path d="M108.428 74.0297L84.3178 60.1097C82.7478 59.1997 81.4678 59.9397 81.4678 61.7297C81.4678 63.5197 82.7278 65.7197 84.2978 66.6297L108.408 80.5497C109.968 81.4497 111.258 80.7297 111.258 78.9297C111.258 77.1297 109.988 74.9297 108.428 74.0197V74.0297ZM89.9678 68.2697L84.2978 64.9997C83.5078 64.5497 82.8778 63.4397 82.8778 62.5497C82.8778 61.6497 83.5178 61.2797 84.3078 61.7397L89.9778 65.0097C90.7678 65.4597 91.3978 66.5697 91.3978 67.4697C91.3978 68.3697 90.7578 68.7297 89.9678 68.2797V68.2697ZM108.418 78.9197L95.6478 71.5497C94.8678 71.0997 94.2278 69.9997 94.2378 69.0997C94.2378 68.1997 94.8778 67.8297 95.6578 68.2797L108.428 75.6497C109.218 76.0997 109.848 77.2097 109.848 78.1097C109.848 79.0097 109.208 79.3697 108.418 78.9197Z" fill="#77D672"/>
    <path d="M106.968 86.2597L99.8778 82.1597C98.3178 81.2597 97.0378 81.9797 97.0378 83.7797C97.0378 85.5797 98.2978 87.7797 99.8678 88.6797L106.958 92.7797C108.518 93.6797 109.808 92.9597 109.808 91.1597C109.808 89.3597 108.538 87.1697 106.978 86.2597H106.968ZM106.958 91.1497L99.8678 87.0497C99.0778 86.5997 98.4478 85.4997 98.4578 84.5997C98.4578 83.6997 99.0978 83.3397 99.8778 83.7897L106.968 87.8897C107.758 88.3397 108.388 89.4397 108.378 90.3397C108.378 91.2397 107.738 91.6097 106.958 91.1597V91.1497Z" fill="#77D672"/>
    <path d="M88.4888 90.2797L84.2388 87.8197C83.4488 87.3697 82.8088 87.7197 82.8088 88.6297C82.8088 89.5297 83.4388 90.6297 84.2288 91.0797L88.4788 93.5297C89.2688 93.9797 89.8988 93.6197 89.8988 92.7197C89.8988 91.8197 89.2688 90.7297 88.4888 90.2697V90.2797Z" fill="#E1DFDD"/>
    <path d="M97.7088 95.6097L93.4488 93.1497C92.6588 92.6997 92.0288 93.0597 92.0288 93.9597C92.0288 94.8597 92.6588 95.9497 93.4388 96.4097L97.6988 98.8697C98.4788 99.3197 99.1188 98.9597 99.1188 98.0597C99.1188 97.1597 98.4888 96.0597 97.7088 95.6097Z" fill="#E1DFDD"/>
    <path d="M94.1888 83.7797C94.9788 84.2297 95.6088 83.8597 95.6088 82.9597C95.6088 82.0697 94.9788 80.9697 94.1988 80.5097L82.8488 73.9597C82.0688 73.5097 81.4288 73.8797 81.4288 74.7697C81.4288 75.6697 82.0588 76.7697 82.8388 77.2197L94.1888 83.7697V83.7797Z" fill="#E1DFDD"/>
    <path d="M108.349 101.75L104.099 99.2897C103.309 98.8397 102.669 99.1897 102.669 100.1C102.669 101 103.299 102.1 104.089 102.55L108.339 105.01C109.129 105.46 109.769 105.11 109.769 104.2C109.769 103.29 109.139 102.2 108.349 101.75Z" fill="#E1DFDD"/>
    <path d="M95.6388 71.5597L108.409 78.9297C109.199 79.3797 109.839 79.0197 109.839 78.1197C109.839 77.2197 109.209 76.1197 108.419 75.6597L95.6488 68.2897C94.8688 67.8397 94.2288 68.2097 94.2288 69.1097C94.2288 70.0097 94.8588 71.1097 95.6388 71.5597Z" fill="#E1DFDD"/>
    <path d="M84.2988 65.0097L89.9688 68.2797C90.7588 68.7297 91.3988 68.3697 91.3988 67.4697C91.3988 66.5697 90.7688 65.4697 89.9788 65.0097L84.3088 61.7397C83.5188 61.2897 82.8788 61.6497 82.8788 62.5497C82.8788 63.4497 83.5088 64.5497 84.2988 64.9997V65.0097Z" fill="#E1DFDD"/>
    <path d="M108.379 90.3397C108.379 89.4397 107.749 88.3497 106.969 87.8897L99.8788 83.7897C99.0888 83.3397 98.4588 83.7097 98.4588 84.5997C98.4588 85.4997 99.0888 86.5997 99.8688 87.0497L106.959 91.1497C107.749 91.5997 108.379 91.2297 108.379 90.3297V90.3397Z" fill="#E1DFDD"/>
    <path d="M122.547 64.9697C122.537 64.8697 122.517 64.7797 122.497 64.6797C122.457 64.4497 122.397 64.2197 122.337 63.9797C122.307 63.8797 122.287 63.7797 122.257 63.6797C122.167 63.3897 122.067 63.1097 121.947 62.8297C121.937 62.7997 121.917 62.7597 121.907 62.7297V62.7097C121.767 62.4097 121.617 62.1197 121.447 61.8297C121.407 61.7597 121.357 61.6797 121.317 61.6097C121.157 61.3497 120.997 61.0897 120.817 60.8397C120.797 60.8097 120.777 60.7797 120.757 60.7497C120.597 60.5297 120.427 60.3297 120.257 60.1297C120.207 60.0797 120.157 60.0297 120.107 59.9697C120.067 59.9297 120.027 59.8797 119.987 59.8397C119.767 59.6097 119.527 59.3897 119.287 59.1897C119.247 59.1597 119.217 59.1297 119.177 59.1097C118.917 58.9097 118.657 58.7197 118.387 58.5597L81.4972 37.2597C80.3172 36.5797 79.2472 36.5097 78.4772 36.9597L74.2472 39.4197C75.0172 38.9697 76.0872 39.0297 77.2672 39.7197L114.157 61.0197C114.427 61.1797 114.687 61.3597 114.947 61.5697C114.987 61.5997 115.017 61.6197 115.057 61.6497C115.297 61.8497 115.527 62.0697 115.757 62.2997C115.797 62.3397 115.837 62.3897 115.877 62.4297C116.107 62.6797 116.327 62.9397 116.527 63.2097C116.547 63.2397 116.567 63.2697 116.587 63.2997C116.767 63.5497 116.937 63.8097 117.087 64.0697C117.127 64.1397 117.177 64.2197 117.217 64.2897C117.387 64.5897 117.537 64.8897 117.677 65.1897C117.687 65.2197 117.707 65.2597 117.717 65.2897C117.837 65.5697 117.937 65.8597 118.027 66.1397C118.057 66.2397 118.087 66.3397 118.107 66.4297C118.177 66.6597 118.227 66.8997 118.267 67.1297C118.287 67.2297 118.307 67.3197 118.317 67.4197C118.367 67.7397 118.397 68.0497 118.397 68.3597L118.237 123.79C118.237 125.13 117.757 126.08 116.997 126.52L121.227 124.06C121.987 123.62 122.467 122.67 122.467 121.33L122.627 65.8997C122.627 65.5897 122.597 65.2797 122.547 64.9597V64.9697Z" fill="url(#paint2_linear_3169_166244)"/>
    <defs>
        <radialGradient id="paint0_radial_3169_166244" cx="0" cy="0" r="1" gradientUnits="userSpaceOnUse" gradientTransform="translate(150.416 74.1856) rotate(105) scale(7.60808 17.12)">
            <stop stop-opacity="0.15"/>
            <stop offset="1" stop-opacity="0"/>
        </radialGradient>
        <radialGradient id="paint1_radial_3169_166244" cx="0" cy="0" r="1" gradientUnits="userSpaceOnUse" gradientTransform="translate(102.234 123.496) rotate(90) scale(12.3214 23.8556)">
            <stop stop-opacity="0.15"/>
            <stop offset="1" stop-opacity="0"/>
        </radialGradient>
        <linearGradient id="paint2_linear_3169_166244" x1="98.4372" y1="36.6746" x2="98.4372" y2="126.52" gradientUnits="userSpaceOnUse">
            <stop stop-color="#E1DFDD"/>
            <stop offset="1" stop-color="#B3B0AD"/>
        </linearGradient>
    </defs>
</svg>
